<?xml version="1.0" encoding="UTF-8"?>
<svg id="Camada_2" data-name="Camada 2" xmlns="http://www.w3.org/2000/svg" viewBox="0 0 84.85 74.4">
  <defs>
    <style>
      .cls-1 {
        fill: #d84444;
      }

      .cls-2 {
        fill: #fefefe;
      }
    </style>
  </defs>
  <g id="OBJECTS">
    <g>
      <polygon class="cls-1" points="79.42 10.75 79.42 5.5 74.1 5.5 74.1 0 52.72 0 52.72 5.5 47.53 5.5 47.53 10.75 42.44 10.75 42.41 10.75 37.32 10.75 37.32 5.5 32.13 5.5 32.13 0 10.75 0 10.75 5.5 5.44 5.5 5.44 10.75 0 10.75 0 37.26 5.37 37.26 5.37 42.51 10.81 42.51 10.81 48.07 15.76 48.07 15.76 53.2 21.22 53.2 21.22 59 26.21 59 26.21 64.07 31.34 64.07 31.34 69.45 37.44 69.45 37.44 74.4 42.41 74.4 42.44 74.4 47.41 74.4 47.41 69.45 53.51 69.45 53.51 64.07 58.64 64.07 58.64 59 63.63 59 63.63 53.2 69.09 53.2 69.09 48.07 74.04 48.07 74.04 42.51 79.48 42.51 79.48 37.26 84.85 37.26 84.85 10.75 79.42 10.75"/>
      <g>
        <rect class="cls-2" x="7.87" y="14.28" width="4.14" height="4.14"/>
        <rect class="cls-2" x="12.01" y="10.15" width="4.14" height="4.14"/>
        <rect class="cls-2" x="12.01" y="14.28" width="4.14" height="4.14"/>
        <rect class="cls-2" x="16.14" y="10.15" width="4.14" height="4.14"/>
        <rect class="cls-2" x="16.14" y="6.01" width="4.14" height="4.14"/>
      </g>
    </g>
  </g>
</svg>